# xmcd
#
# Track frame offsets:
#	225
#	22174
#	39187
#	52195
#	59028
#	68007
#	94986
#	100781
#	106245
#	117082
#	126491
#	143146
#	165815
#	176239
#	186376
#	194318
#	211064
#	226343
#	243061
#
# Disc length: 3394 seconds
#
# Revision: 1
# Processed by: cddbd v1.5.2PL0 Copyright (c) Steve Scherf et al.
# Submitted via: audiograbber 1.81.03
#
DISCID=0d0d3f13
DTITLE=NICOLÁS ARNICHO - BATUQUES Y BATIDAS
DYEAR=2009
DGENRE=Tribal
TTITLE0=BATUQUES Y BATIDAS
TTITLE1=PEDIDO
TTITLE2=CANDONMALINKE
TTITLE3=SAMDOMBE
TTITLE4=GLOBAL RHYTHM
TTITLE5=AGNADNAM
TTITLE6=GUARAPAKANDOMBE
TTITLE7=CANDOMBALAJ
TTITLE8=HABLANDO EN UDÚ Y TAMÁ
TTITLE9=EL SOL VERDE
TTITLE10=REY GUAJIRO
TTITLE11=PAO DE ATIRADEIRA
TTITLE12=CHILLOUT
TTITLE13=CAMIÓN YORUBA 4 ALL
TTITLE14=ALL AROUND PEDREGULLO
TTITLE15=LA MAMA VIEJA
TTITLE16=UN INDIO
TTITLE17=BATUKES Y BATIDAS MIX
TTITLE18=CANCIÓN FINAL
EXTD=
EXTT0=
EXTT1=
EXTT2=
EXTT3=
EXTT4=
EXTT5=
EXTT6=
EXTT7=
EXTT8=
EXTT9=
EXTT10=
EXTT11=
EXTT12=
EXTT13=
EXTT14=
EXTT15=
EXTT16=
EXTT17=
EXTT18=
PLAYORDER=
